<svg version="1.1" id="Capa_1" xmlns="http://www.w3.org/2000/svg" xmlns:xlink="http://www.w3.org/1999/xlink" x="0px" y="0px"
	 viewBox="0 0 490.651 490.651" style="enable-background:new 0 0 490.651 490.651;" xml:space="preserve" fill="hsl(48, 100%, 50%)">
<g>
	<g>
		<path d="M47.064,245.317L274.2,18.203c4.16-4.16,4.16-10.923,0-15.083c-4.16-4.16-10.923-4.16-15.083,0L24.451,237.787
			c-4.16,4.16-4.16,10.923,0,15.083l234.667,234.667c2.069,2.069,4.8,3.115,7.531,3.115c2.731,0,5.461-1.045,7.552-3.115
			c4.16-4.16,4.16-10.923,0-15.083L47.064,245.317z"/>
	</g>
</g>
<g>
	<g>
		<path d="M239.064,245.317L466.2,18.203c4.16-4.16,4.16-10.923,0-15.083c-4.16-4.16-10.923-4.16-15.083,0L216.451,237.787
			c-4.16,4.16-4.16,10.923,0,15.083l234.667,234.667c2.069,2.069,4.8,3.115,7.531,3.115c2.731,0,5.461-1.045,7.552-3.115
			c4.16-4.16,4.16-10.923,0-15.083L239.064,245.317z"/>
	</g>
</g>
<g>
</g>
<g>
</g>
<g>
</g>
<g>
</g>
<g>
</g>
<g>
</g>
<g>
</g>
<g>
</g>
<g>
</g>
<g>
</g>
<g>
</g>
<g>
</g>
<g>
</g>
<g>
</g>
<g>
</g>
</svg>
